<mxfile host="app.diagrams.net" modified="2024-01-01T12:28:49.709Z" agent="Mozilla/5.0 (Macintosh; Intel Mac OS X 10_15_7) AppleWebKit/537.36 (KHTML, like Gecko) Chrome/120.0.0.0 Safari/537.36" etag="GMp1JfStQgfE0gKZ0uiS" version="22.1.15" type="github">
  <diagram name="Page-1" id="2YBvvXClWsGukQMizWep">
    <mxGraphModel dx="2934" dy="1004" grid="1" gridSize="10" guides="1" tooltips="1" connect="1" arrows="1" fold="1" page="1" pageScale="1" pageWidth="850" pageHeight="1100" math="0" shadow="0">
      <root>
        <mxCell id="0" />
        <mxCell id="1" parent="0" />
        <mxCell id="6x2BA-DNIwaP8Ud8F5fc-6" style="edgeStyle=orthogonalEdgeStyle;rounded=0;orthogonalLoop=1;jettySize=auto;html=1;exitX=0.5;exitY=1;exitDx=0;exitDy=0;" edge="1" parent="1">
          <mxGeometry relative="1" as="geometry">
            <mxPoint x="167.5" y="220" as="sourcePoint" />
            <mxPoint x="167.5" y="220" as="targetPoint" />
          </mxGeometry>
        </mxCell>
        <mxCell id="6x2BA-DNIwaP8Ud8F5fc-31" style="edgeStyle=orthogonalEdgeStyle;rounded=0;orthogonalLoop=1;jettySize=auto;html=1;exitX=1;exitY=0.5;exitDx=0;exitDy=0;" edge="1" parent="1" source="6x2BA-DNIwaP8Ud8F5fc-10">
          <mxGeometry relative="1" as="geometry">
            <mxPoint x="90" y="75.33333333333337" as="targetPoint" />
          </mxGeometry>
        </mxCell>
        <mxCell id="6x2BA-DNIwaP8Ud8F5fc-10" value="Início&amp;nbsp;" style="triangle;whiteSpace=wrap;html=1;" vertex="1" parent="1">
          <mxGeometry y="40" width="60" height="70" as="geometry" />
        </mxCell>
        <mxCell id="6x2BA-DNIwaP8Ud8F5fc-19" value="" style="endArrow=classic;html=1;rounded=0;" edge="1" parent="1">
          <mxGeometry width="50" height="50" relative="1" as="geometry">
            <mxPoint x="120" y="110" as="sourcePoint" />
            <mxPoint x="120" y="160" as="targetPoint" />
          </mxGeometry>
        </mxCell>
        <mxCell id="6x2BA-DNIwaP8Ud8F5fc-20" value="&lt;meta charset=&quot;utf-8&quot;&gt;&lt;span style=&quot;color: rgb(0, 0, 0); font-family: Helvetica; font-size: 12px; font-style: normal; font-variant-ligatures: normal; font-variant-caps: normal; font-weight: 400; letter-spacing: normal; orphans: 2; text-align: center; text-indent: 0px; text-transform: none; widows: 2; word-spacing: 0px; -webkit-text-stroke-width: 0px; background-color: rgb(251, 251, 251); text-decoration-thickness: initial; text-decoration-style: initial; text-decoration-color: initial; float: none; display: inline !important;&quot;&gt;Legislação - recolha dos aspectos a serem aproveitados&lt;/span&gt;" style="rounded=0;whiteSpace=wrap;html=1;" vertex="1" parent="1">
          <mxGeometry x="100" y="40" width="120" height="60" as="geometry" />
        </mxCell>
        <mxCell id="6x2BA-DNIwaP8Ud8F5fc-29" style="edgeStyle=orthogonalEdgeStyle;rounded=0;orthogonalLoop=1;jettySize=auto;html=1;" edge="1" parent="1" source="6x2BA-DNIwaP8Ud8F5fc-21" target="6x2BA-DNIwaP8Ud8F5fc-26">
          <mxGeometry relative="1" as="geometry">
            <Array as="points">
              <mxPoint x="100" y="280" />
              <mxPoint x="100" y="280" />
            </Array>
          </mxGeometry>
        </mxCell>
        <mxCell id="6x2BA-DNIwaP8Ud8F5fc-21" value="&lt;meta charset=&quot;utf-8&quot;&gt;&lt;span style=&quot;color: rgb(0, 0, 0); font-family: Helvetica; font-size: 12px; font-style: normal; font-variant-ligatures: normal; font-variant-caps: normal; font-weight: 400; letter-spacing: normal; orphans: 2; text-align: center; text-indent: 0px; text-transform: none; widows: 2; word-spacing: 0px; -webkit-text-stroke-width: 0px; background-color: rgb(251, 251, 251); text-decoration-thickness: initial; text-decoration-style: initial; text-decoration-color: initial; float: none; display: inline !important;&quot;&gt;Separar em áreas:&lt;/span&gt;&lt;br style=&quot;border-color: var(--border-color); color: rgb(0, 0, 0); font-family: Helvetica; font-size: 12px; font-style: normal; font-variant-ligatures: normal; font-variant-caps: normal; font-weight: 400; letter-spacing: normal; orphans: 2; text-align: center; text-indent: 0px; text-transform: none; widows: 2; word-spacing: 0px; -webkit-text-stroke-width: 0px; text-decoration-thickness: initial; text-decoration-style: initial; text-decoration-color: initial;&quot;&gt;&lt;span style=&quot;color: rgb(0, 0, 0); font-family: Helvetica; font-size: 12px; font-style: normal; font-variant-ligatures: normal; font-variant-caps: normal; font-weight: 400; letter-spacing: normal; orphans: 2; text-align: center; text-indent: 0px; text-transform: none; widows: 2; word-spacing: 0px; -webkit-text-stroke-width: 0px; background-color: rgb(251, 251, 251); text-decoration-thickness: initial; text-decoration-style: initial; text-decoration-color: initial; float: none; display: inline !important;&quot;&gt;PI, MU, e Marcas&lt;/span&gt;" style="shape=document;whiteSpace=wrap;html=1;boundedLbl=1;" vertex="1" parent="1">
          <mxGeometry x="80" y="170" width="120" height="80" as="geometry" />
        </mxCell>
        <mxCell id="6x2BA-DNIwaP8Ud8F5fc-26" value="&lt;font style=&quot;font-size: 8px;&quot;&gt;Diagramar os itens da legislação a serem aproveitados&lt;/font&gt;" style="shape=tape;whiteSpace=wrap;html=1;" vertex="1" parent="1">
          <mxGeometry x="80" y="290" width="110" height="100" as="geometry" />
        </mxCell>
        <mxCell id="6x2BA-DNIwaP8Ud8F5fc-32" style="edgeStyle=orthogonalEdgeStyle;rounded=0;orthogonalLoop=1;jettySize=auto;html=1;exitX=0.75;exitY=0;exitDx=0;exitDy=0;entryX=0.5;entryY=0;entryDx=0;entryDy=0;" edge="1" parent="1" source="6x2BA-DNIwaP8Ud8F5fc-20" target="6x2BA-DNIwaP8Ud8F5fc-20">
          <mxGeometry relative="1" as="geometry" />
        </mxCell>
        <mxCell id="6x2BA-DNIwaP8Ud8F5fc-40" value="Invenções" style="rounded=0;whiteSpace=wrap;html=1;" vertex="1" parent="1">
          <mxGeometry x="470" width="120" height="60" as="geometry" />
        </mxCell>
        <mxCell id="6x2BA-DNIwaP8Ud8F5fc-41" value="Aperfeiçoamentos&amp;nbsp;&lt;br&gt;MU" style="rounded=0;whiteSpace=wrap;html=1;" vertex="1" parent="1">
          <mxGeometry x="520" y="120" width="120" height="60" as="geometry" />
        </mxCell>
        <mxCell id="6x2BA-DNIwaP8Ud8F5fc-69" style="edgeStyle=orthogonalEdgeStyle;rounded=0;orthogonalLoop=1;jettySize=auto;html=1;exitX=1;exitY=0.5;exitDx=0;exitDy=0;" edge="1" parent="1" source="6x2BA-DNIwaP8Ud8F5fc-42">
          <mxGeometry relative="1" as="geometry">
            <mxPoint x="740" y="230" as="targetPoint" />
          </mxGeometry>
        </mxCell>
        <mxCell id="6x2BA-DNIwaP8Ud8F5fc-42" value="Designs" style="rounded=0;whiteSpace=wrap;html=1;" vertex="1" parent="1">
          <mxGeometry x="515" y="220" width="120" height="60" as="geometry" />
        </mxCell>
        <mxCell id="6x2BA-DNIwaP8Ud8F5fc-43" value="Marcas" style="rounded=0;whiteSpace=wrap;html=1;" vertex="1" parent="1">
          <mxGeometry x="510" y="340" width="120" height="60" as="geometry" />
        </mxCell>
        <mxCell id="6x2BA-DNIwaP8Ud8F5fc-70" style="edgeStyle=orthogonalEdgeStyle;rounded=0;orthogonalLoop=1;jettySize=auto;html=1;exitX=1;exitY=0.5;exitDx=0;exitDy=0;" edge="1" parent="1" source="6x2BA-DNIwaP8Ud8F5fc-44">
          <mxGeometry relative="1" as="geometry">
            <mxPoint x="920" y="210" as="targetPoint" />
          </mxGeometry>
        </mxCell>
        <mxCell id="6x2BA-DNIwaP8Ud8F5fc-44" value="Criar questionário estilo escolhas objetivas&amp;nbsp;" style="rounded=0;whiteSpace=wrap;html=1;" vertex="1" parent="1">
          <mxGeometry x="750" y="200" width="110" height="60" as="geometry" />
        </mxCell>
        <mxCell id="6x2BA-DNIwaP8Ud8F5fc-72" style="edgeStyle=orthogonalEdgeStyle;rounded=0;orthogonalLoop=1;jettySize=auto;html=1;exitX=1;exitY=0.5;exitDx=0;exitDy=0;" edge="1" parent="1" source="6x2BA-DNIwaP8Ud8F5fc-50" target="6x2BA-DNIwaP8Ud8F5fc-71">
          <mxGeometry relative="1" as="geometry" />
        </mxCell>
        <mxCell id="6x2BA-DNIwaP8Ud8F5fc-50" value="Questões de arrastar respostas para requisitos de cada item (a novidade, originalidade, industrialização, por exemplo)" style="whiteSpace=wrap;html=1;rounded=0;" vertex="1" parent="1">
          <mxGeometry x="940" y="170" width="120" height="120" as="geometry" />
        </mxCell>
        <mxCell id="6x2BA-DNIwaP8Ud8F5fc-64" style="edgeStyle=orthogonalEdgeStyle;rounded=0;orthogonalLoop=1;jettySize=auto;html=1;exitX=1;exitY=0;exitDx=0;exitDy=0;" edge="1" parent="1" source="6x2BA-DNIwaP8Ud8F5fc-54">
          <mxGeometry relative="1" as="geometry">
            <mxPoint x="500" y="70" as="targetPoint" />
          </mxGeometry>
        </mxCell>
        <mxCell id="6x2BA-DNIwaP8Ud8F5fc-65" style="edgeStyle=orthogonalEdgeStyle;rounded=0;orthogonalLoop=1;jettySize=auto;html=1;exitX=1;exitY=0.25;exitDx=0;exitDy=0;" edge="1" parent="1" source="6x2BA-DNIwaP8Ud8F5fc-54">
          <mxGeometry relative="1" as="geometry">
            <mxPoint x="510" y="157.9999999999999" as="targetPoint" />
          </mxGeometry>
        </mxCell>
        <mxCell id="6x2BA-DNIwaP8Ud8F5fc-66" style="edgeStyle=orthogonalEdgeStyle;rounded=0;orthogonalLoop=1;jettySize=auto;html=1;exitX=1;exitY=0.75;exitDx=0;exitDy=0;" edge="1" parent="1" source="6x2BA-DNIwaP8Ud8F5fc-54">
          <mxGeometry relative="1" as="geometry">
            <mxPoint x="500" y="252.5454545454545" as="targetPoint" />
          </mxGeometry>
        </mxCell>
        <mxCell id="6x2BA-DNIwaP8Ud8F5fc-67" style="edgeStyle=orthogonalEdgeStyle;rounded=0;orthogonalLoop=1;jettySize=auto;html=1;exitX=1;exitY=1;exitDx=0;exitDy=0;" edge="1" parent="1" source="6x2BA-DNIwaP8Ud8F5fc-54">
          <mxGeometry relative="1" as="geometry">
            <mxPoint x="530" y="330" as="targetPoint" />
          </mxGeometry>
        </mxCell>
        <mxCell id="6x2BA-DNIwaP8Ud8F5fc-54" value="&lt;meta charset=&quot;utf-8&quot;&gt;&lt;span style=&quot;color: rgb(0, 0, 0); font-family: Helvetica; font-size: 12px; font-style: normal; font-variant-ligatures: normal; font-variant-caps: normal; font-weight: 400; letter-spacing: normal; orphans: 2; text-align: center; text-indent: 0px; text-transform: none; widows: 2; word-spacing: 0px; -webkit-text-stroke-width: 0px; background-color: rgb(251, 251, 251); text-decoration-thickness: initial; text-decoration-style: initial; text-decoration-color: initial; float: none; display: inline !important;&quot;&gt;Com base em histórias de sucesso, auxiliar na reflexçao: exemplo, lâmpada, automóvel, bicicleta, escova de dentes, telefone, para invenções e MUs, e para desenhos, calçados, e marcas, coca-cola.&lt;/span&gt;&lt;br style=&quot;border-color: var(--border-color); color: rgb(0, 0, 0); font-family: Helvetica; font-size: 12px; font-style: normal; font-variant-ligatures: normal; font-variant-caps: normal; font-weight: 400; letter-spacing: normal; orphans: 2; text-align: center; text-indent: 0px; text-transform: none; widows: 2; word-spacing: 0px; -webkit-text-stroke-width: 0px; background-color: rgb(251, 251, 251); text-decoration-thickness: initial; text-decoration-style: initial; text-decoration-color: initial;&quot;&gt;&lt;span style=&quot;color: rgb(0, 0, 0); font-family: Helvetica; font-size: 12px; font-style: normal; font-variant-ligatures: normal; font-variant-caps: normal; font-weight: 400; letter-spacing: normal; orphans: 2; text-align: center; text-indent: 0px; text-transform: none; widows: 2; word-spacing: 0px; -webkit-text-stroke-width: 0px; background-color: rgb(251, 251, 251); text-decoration-thickness: initial; text-decoration-style: initial; text-decoration-color: initial; float: none; display: inline !important;&quot;&gt;Criar imagens de quebra-cabeças, para arrastar e fechar uma imagem, a fim de ensinar as diferenças.&lt;/span&gt;" style="whiteSpace=wrap;html=1;aspect=fixed;" vertex="1" parent="1">
          <mxGeometry x="280" y="110" width="190" height="190" as="geometry" />
        </mxCell>
        <mxCell id="6x2BA-DNIwaP8Ud8F5fc-61" value="" style="endArrow=classic;html=1;rounded=0;" edge="1" parent="1">
          <mxGeometry width="50" height="50" relative="1" as="geometry">
            <mxPoint x="200" y="340" as="sourcePoint" />
            <mxPoint x="270" y="250" as="targetPoint" />
            <Array as="points">
              <mxPoint x="220" y="320" />
            </Array>
          </mxGeometry>
        </mxCell>
        <mxCell id="6x2BA-DNIwaP8Ud8F5fc-62" value="Text" style="edgeLabel;html=1;align=center;verticalAlign=middle;resizable=0;points=[];" vertex="1" connectable="0" parent="6x2BA-DNIwaP8Ud8F5fc-61">
          <mxGeometry x="-0.075" y="-1" relative="1" as="geometry">
            <mxPoint x="-639" y="117" as="offset" />
          </mxGeometry>
        </mxCell>
        <mxCell id="6x2BA-DNIwaP8Ud8F5fc-76" value="" style="edgeStyle=orthogonalEdgeStyle;rounded=0;orthogonalLoop=1;jettySize=auto;html=1;" edge="1" parent="1" source="6x2BA-DNIwaP8Ud8F5fc-71" target="6x2BA-DNIwaP8Ud8F5fc-75">
          <mxGeometry relative="1" as="geometry" />
        </mxCell>
        <mxCell id="6x2BA-DNIwaP8Ud8F5fc-71" value="E agora, vamos ser inventores de sucesso?" style="rounded=1;whiteSpace=wrap;html=1;" vertex="1" parent="1">
          <mxGeometry x="1170" y="190" width="120" height="60" as="geometry" />
        </mxCell>
        <mxCell id="6x2BA-DNIwaP8Ud8F5fc-78" value="" style="edgeStyle=orthogonalEdgeStyle;rounded=0;orthogonalLoop=1;jettySize=auto;html=1;" edge="1" parent="1" source="6x2BA-DNIwaP8Ud8F5fc-75" target="6x2BA-DNIwaP8Ud8F5fc-77">
          <mxGeometry relative="1" as="geometry" />
        </mxCell>
        <mxCell id="6x2BA-DNIwaP8Ud8F5fc-84" style="edgeStyle=orthogonalEdgeStyle;rounded=0;orthogonalLoop=1;jettySize=auto;html=1;exitX=1;exitY=0.25;exitDx=0;exitDy=0;" edge="1" parent="1" source="6x2BA-DNIwaP8Ud8F5fc-75">
          <mxGeometry relative="1" as="geometry">
            <mxPoint x="1350" y="370" as="targetPoint" />
          </mxGeometry>
        </mxCell>
        <mxCell id="6x2BA-DNIwaP8Ud8F5fc-75" value="O que vc pode criar para ajudar sua escola a ficar mais organizada?" style="whiteSpace=wrap;html=1;rounded=1;" vertex="1" parent="1">
          <mxGeometry x="1170" y="330" width="120" height="60" as="geometry" />
        </mxCell>
        <mxCell id="6x2BA-DNIwaP8Ud8F5fc-80" value="" style="edgeStyle=orthogonalEdgeStyle;rounded=0;orthogonalLoop=1;jettySize=auto;html=1;" edge="1" parent="1" source="6x2BA-DNIwaP8Ud8F5fc-77" target="6x2BA-DNIwaP8Ud8F5fc-79">
          <mxGeometry relative="1" as="geometry" />
        </mxCell>
        <mxCell id="6x2BA-DNIwaP8Ud8F5fc-85" style="edgeStyle=orthogonalEdgeStyle;rounded=0;orthogonalLoop=1;jettySize=auto;html=1;exitX=1;exitY=0.5;exitDx=0;exitDy=0;" edge="1" parent="1" source="6x2BA-DNIwaP8Ud8F5fc-77" target="6x2BA-DNIwaP8Ud8F5fc-82">
          <mxGeometry relative="1" as="geometry" />
        </mxCell>
        <mxCell id="6x2BA-DNIwaP8Ud8F5fc-77" value="Ou mais limpa?" style="whiteSpace=wrap;html=1;rounded=1;" vertex="1" parent="1">
          <mxGeometry x="1170" y="470" width="120" height="60" as="geometry" />
        </mxCell>
        <mxCell id="6x2BA-DNIwaP8Ud8F5fc-88" style="edgeStyle=orthogonalEdgeStyle;rounded=0;orthogonalLoop=1;jettySize=auto;html=1;exitX=1;exitY=0.5;exitDx=0;exitDy=0;" edge="1" parent="1" source="6x2BA-DNIwaP8Ud8F5fc-79" target="6x2BA-DNIwaP8Ud8F5fc-82">
          <mxGeometry relative="1" as="geometry" />
        </mxCell>
        <mxCell id="6x2BA-DNIwaP8Ud8F5fc-79" value="Ou mais divertida?" style="whiteSpace=wrap;html=1;rounded=1;" vertex="1" parent="1">
          <mxGeometry x="1170" y="610" width="120" height="60" as="geometry" />
        </mxCell>
        <mxCell id="6x2BA-DNIwaP8Ud8F5fc-82" value="" style="html=1;whiteSpace=wrap;shape=isoCube2;backgroundOutline=1;isoAngle=15;" vertex="1" parent="1">
          <mxGeometry x="1370" y="250" width="250" height="280" as="geometry" />
        </mxCell>
        <mxCell id="6x2BA-DNIwaP8Ud8F5fc-83" value="BOX DE NOVAS IDEIAS" style="ellipse;shape=cloud;whiteSpace=wrap;html=1;" vertex="1" parent="1">
          <mxGeometry x="1370" y="370" width="120" height="80" as="geometry" />
        </mxCell>
      </root>
    </mxGraphModel>
  </diagram>
</mxfile>
